# AST/ASF file generated using VICON BodyLanguage
# -----------------------------------------------
:version 1.10
:name VICON
:units
  mass 1.0
  length 0.45
  angle deg
:documentation
   .ast/.asf automatically generated from VICON data using
   VICON BodyBuilder and BodyLanguage model FoxedUp or BRILLIANT.MOD
:root
   order TX TY TZ RX RY RZ
   axis XYZ
   position 0 0 0  
   orientation 0 0 0 
:bonedata
  begin
     id 1 
     name lhipjoint
     direction 0.535335 -0.74333 0.401095 
     length 2.04549 
     axis 0 0 0  XYZ
  end
  begin
     id 2 
     name lfemur
     direction 0.34202 -0.939693 0  
     length 6.95643  
     axis 0 0 20  XYZ
    dof rx ry rz
    limits (-160.0 20.0)
           (-70.0 70.0)
           (-60.0 70.0)
  end
  begin
     id 3 
     name ltibia
     direction 0.34192 -0.939729 0   
     length 5.55969   
     axis 0 0 20   XYZ
    dof rx
    limits (-10.0 170.0)
  end
  begin
     id 4 
     name lfoot
     direction 0.216943 -0.596046 0.773088   
     length 2.27918   
     axis -90 7.62852e-016 20   XYZ
    dof rx rz
    limits (-45.0 90.0)
           (-70.0 20.0)
  end
  begin
     id 5 
     name ltoes
     direction 1.53519e-011 -4.21748e-011 1   
     length 1.05562   
     axis -90 7.62852e-016 20   XYZ
    dof rx
    limits (-90.0 20.0)
  end
  begin
     id 6 
     name rhipjoint
     direction -0.576368 -0.719173 0.38806   
     length 2.1142  
     axis 0 0 0  XYZ 
  end
  begin
     id 7 
     name rfemur
     direction -0.34202 -0.939693 0   
     length 7.07928   
     axis 0 0 -20   XYZ
    dof rx ry rz
    limits (-160.0 20.0)
           (-70.0 70.0)
           (-70.0 60.0)
  end
  begin
     id 8 
     name rtibia
     direction -0.34202 -0.939693 0   
     length 5.79974   
     axis 0 0 -20   XYZ
    dof rx
    limits (-10.0 170.0)
 end
 begin
     id 9 
     name rfoot
     direction -0.189288 -0.520065 0.832888   
     length 2.42173  
     axis -90 -7.62852e-016 -20   XYZ
    dof rx rz
    limits (-45.0 90.0)
           (-20.0 70.0)
  end
  begin
     id 10 
     name rtoes
     direction -1.53574e-011 -4.21658e-011 1   
     length 1.14469   
     axis -90 -7.62852e-016 -20   XYZ
    dof rx
    limits (-90.0 20.0)
  end
  begin
     id 11 
     name lowerback
     direction -0.00135702 0.993803 0.111144   
     length 1.91308   
     axis 0 0 0   XYZ
    dof rx ry rz
    limits (-20.0 45.0)
           (-30.0 30.0)
           (-30.0 30.0)
  end
  begin
     id 12 
     name upperback
     direction -0.0056745 0.999813 0.0184631   
     length 1.9212   
     axis 0 0 0   XYZ
    dof rx ry rz
    limits (-20.0 45.0)
           (-30.0 30.0)
           (-30.0 30.0)
  end
  begin
     id 13 
     name thorax
     direction -0.00733434 0.999426 -0.0330788   
     length 1.94196   
     axis 0 0 0   XYZ
    dof rx ry rz
    limits (-20.0 45.0)
           (-30.0 30.0)
           (-30.0 30.0)
  end
  begin
     id 14 
     name lowerneck
     direction 0.0563074 0.996944 -0.0541571   
     length 2.34257   
     axis 0 0 0   XYZ
    dof rx ry rz
    limits (-20.0 45.0)
           (-30.0 30.0)
           (-30.0 30.0)
  end
  begin
     id 15 
     name upperneck
     direction -0.0544519 0.976166 -0.210085   
     length 2.32506   
     axis 0 0 0   XYZ
    dof rx ry rz
    limits (-20.0 45.0)
           (-30.0 30.0)
           (-30.0 30.0)
  end
  begin
     id 16
     name head
     direction -0.0226035 0.997615 -0.0652205  
     length 2.3648  
     axis 0 0 0   XYZ
    dof rx ry rz
    limits (-20.0 45.0)
           (-30.0 30.0)
           (-30.0 30.0)
  end
  begin
     id 17 
     name lclavicle
     direction 0.92109 0.381297 -0.0787716  
     length 4.0487  
     axis 0 0 0   XYZ
    dof ry rz
    limits (-20.0 10.0)
           (0.0 20.0)
  end
  begin
     id 18 
     name lhumerus
     direction 1 -4.48986e-011 3.56724e-027   
     length 4.94991   
     axis 180 -30 -90   XYZ
    dof rx ry rz
    limits (-60.0 90.0)
           (-90.0 90.0)
           (-90.0 90.0)
  end
  begin
     id 19
     name lradius
     direction 1 -4.48981e-011 8.62147e-027   
     length 2.7606   
     axis 180 -30 -90   XYZ
    dof rx
    limits (-10.0 170.0)
  end
  begin
     id 20
     name lwrist
     direction 1 -4.48989e-011 1.59799e-026   
     length 1.3803   
     axis -1.17785e-014 90 90   XYZ
    dof ry
    limits (-180.0 0.0)
 end
  begin
     id 21 
     name lhand
     direction 1 -4.48896e-011 3.19599e-026   
     length 0.843936   
     axis -2.03931e-014 90 90   XYZ
    dof rx rz
    limits (-90.0 90.0)
           (-45.0 45.0)
  end
  begin
     id 22 
     name lfingers
     direction 1 -4.48887e-011 6.39197e-026   
     length 0.680403   
     axis -4.07862e-014 90 90   XYZ
    dof rx
    limits (0.0 90.0)
  end
  begin
     id 23
     name lthumb
     direction 0.707107 -6.348e-011 0.707107   
     length 0.976926   
     axis -90 45 2.85299e-015   XYZ
    dof rx rz
    limits (-45.0 45.0)
           (-45.0 45.0)
  end
  begin
     id 24 
     name rclavicle
     direction -0.951104 0.307692 -0.026953   
     length 4.21801  
     axis 0 0 0   XYZ 
    dof ry rz
    limits (-10.0 20.0)
           (-20.0 0.0)
  end
  begin
     id 25 
     name rhumerus
     direction -1 -4.4896e-011 -1.8171e-018  
     length 4.32982   
     axis 180 30 90   XYZ
    dof rx ry rz
    limits (-90.0 60.0)
           (-90.0 90.0)
           (-90.0 90.0)
  end
  begin
     id 26 
     name rradius
     direction -1 -4.48959e-011 8.25165e-027   
     length 3.20057   
     axis 180 30 90   XYZ
    dof rx
    limits (-10.0 170.0)
  end
  begin
     id 27 
     name rwrist
     direction -1 -4.48997e-011 1.59799e-026   
     length 1.60029   
     axis -1.17785e-014 -90 -90   XYZ
    dof ry
    limits (-180.0 0.0)
  end
  begin
     id 28
     name rhand
     direction -1 -4.49023e-011 3.19599e-026   
     length 0.960433   
     axis -2.03931e-014 -90 -90   XYZ
    dof rx rz
    limits (-90.0 90.0)
           (-45.0 45.0)
  end
  begin
     id 29
     name rfingers
     direction -1 -4.48802e-011 6.39197e-026   
     length 0.774326   
     axis -4.07862e-014 -90 -90   XYZ
    dof rx
    limits (0.0 90.0)
  end
  begin
     id 30
     name rthumb
     direction -0.707107 -6.34876e-011 0.707107   
     length 1.11178   
     axis -90 -45 -2.85299e-015   XYZ
    dof rx rz
    limits (-45.0 45.0)
           (-45.0 45.0)
  end
:hierarchy
  begin
    root lhipjoint rhipjoint lowerback
    lhipjoint lfemur
    lfemur ltibia
    ltibia lfoot
    lfoot ltoes
    rhipjoint rfemur
    rfemur rtibia
    rtibia rfoot
    rfoot rtoes
    lowerback upperback
    upperback thorax
    thorax lowerneck lclavicle rclavicle
    lowerneck upperneck
    upperneck head
    lclavicle lhumerus
    lhumerus lradius
    lradius lwrist
    lwrist lhand lthumb
    lhand lfingers
    rclavicle rhumerus
    rhumerus rradius
    rradius rwrist
    rwrist rhand rthumb
    rhand rfingers
end

#!OML:ASF C:\KaitlinTest1\Natural Motions\Nikki\Session 2\Nikki.ASF
:FULLY-SPECIFIED
:DEGREES
493
root -18.8663 16.6283 5.06347 -155.083 85.7743 -164.98
lowerback -13.4976 -1.63335 -0.162289
upperback -4.03691 -1.92753 -0.622938
thorax 3.29846 -0.878246 -0.862976
lowerneck -1.7761 1.58717 8.46991
upperneck 27.3765 3.88118 -5.66075
head 9.09783 2.55678 -3.02959
rclavicle -3.98812e-014 -9.14409e-015
rhumerus -42.5956 -21.9261 -79.492
rradius 18.5024
rwrist 28.9509
rhand -35.9026 2.97175
rfingers 7.12502
rthumb -9.0158 -26.8156
lclavicle -3.98812e-014 -9.14409e-015
lhumerus -42.3454 16.1973 80.3533
lradius 24.0372
lwrist -39.736
lhand -32.9136 3.6369
lfingers 7.12502
lthumb -6.13075 33.5282
rfemur -7.67129 -16.9257 20.9967
rtibia 11.2596
rfoot -10.8536 12.08
rtoes -6.04305e-014
lfemur -9.7836 11.981 -17.8898
ltibia 9.63624
lfoot -2.11101 -16.7199
ltoes -5.725e-014
494
root -18.8681 16.628 5.06406 -155.21 85.7751 -165.097
lowerback -13.4603 -1.63588 -0.181164
upperback -4.0389 -1.92901 -0.621876
thorax 3.27684 -0.879236 -0.850358
lowerneck -1.77004 1.59758 8.4673
upperneck 27.3713 3.8946 -5.65269
head 9.09583 2.5636 -3.02514
rclavicle 1.74931e-014 1.98785e-015
rhumerus -42.5899 -21.9929 -79.4408
rradius 18.4761
rwrist 29.0177
rhand -35.9267 3.10654
rfingers 7.12502
rthumb -9.03911 -26.6798
lclavicle 1.74931e-014 1.98785e-015
lhumerus -42.3623 16.3547 80.2181
lradius 24.0195
lwrist -40.1773
lhand -32.706 3.63169
lfingers 7.12502
lthumb -5.93035 33.5287
rfemur -7.66072 -16.9123 20.9916
rtibia 11.2378
rfoot -10.8397 12.0564
rtoes 6.67916e-014
lfemur -9.79227 11.9778 -17.8951
ltibia 9.65713
lfoot -2.15818 -16.6964
ltoes 3.49861e-014
495
root -18.8669 16.628 5.06342 -154.581 85.7758 -164.467
lowerback -13.4624 -1.62771 -0.135413
upperback -4.05375 -1.92439 -0.606586
thorax 3.26148 -0.876688 -0.859217
lowerneck -1.72945 1.59664 8.46527
upperneck 27.3714 3.90225 -5.66484
head 9.08902 2.56736 -3.02872
rclavicle 1.30452e-014 1.98785e-015
rhumerus -42.6412 -21.8752 -79.4919
rradius 18.5449
rwrist 28.8954
rhand -35.8414 2.86455
rfingers 7.12502
rthumb -8.95673 -26.9253
lclavicle 1.30452e-014 1.98785e-015
lhumerus -42.3216 16.1684 80.3611
lradius 24.0461
lwrist -39.6196
lhand -32.7899 3.66656
lfingers 7.12502
lthumb -6.01134 33.5613
rfemur -7.66086 -16.9106 21.0372
rtibia 11.2332
rfoot -10.8139 12.077
rtoes 7.31528e-014
lfemur -9.79869 11.9987 -17.8503
ltibia 9.67501
lfoot -2.14709 -16.7093
ltoes 5.56597e-014
496
root -18.8673 16.6285 5.06352 -154.733 85.7656 -164.636
lowerback -13.4695 -1.63725 -0.155686
upperback -4.0598 -1.93378 -0.607324
thorax 3.25954 -0.881175 -0.850157
lowerneck -1.72245 1.60358 8.46449
upperneck 27.3736 3.90939 -5.64893
head 9.08893 2.57241 -3.02248
rclavicle 2.08724e-014 9.93923e-015
rhumerus -42.6351 -21.8512 -79.5131
rradius 18.5391
rwrist 28.8251
rhand -35.9871 3.10241
rfingers 7.12502
rthumb -9.09732 -26.6814
lclavicle 2.08724e-014 9.93923e-015
lhumerus -42.3411 16.1792 80.3367
lradius 23.9927
lwrist -39.8291
lhand -32.8641 3.69264
lfingers 7.12502
lthumb -6.08296 33.5853
rfemur -7.67944 -16.9221 21.0331
rtibia 11.2367
rfoot -10.8114 12.0754
rtoes 1.43125e-014
lfemur -9.83335 11.9846 -17.862
ltibia 9.68433
lfoot -2.11176 -16.7295
ltoes -1.74931e-014
497
root -18.8674 16.6276 5.06324 -154.819 85.8025 -164.743
lowerback -13.4965 -1.62365 -0.168874
upperback -4.0613 -1.91256 -0.627204
thorax 3.27256 -0.870449 -0.860828
lowerneck -1.70395 1.60364 8.51067
upperneck 27.3475 3.91091 -5.67651
head 9.07777 2.57474 -3.03992
rclavicle 5.34234e-015 4.37326e-015
rhumerus -42.6248 -21.8598 -79.5327
rradius 18.5454
rwrist 28.819
rhand -35.9709 2.9867
rfingers 7.12502
rthumb -9.08173 -26.7978
lclavicle 5.34234e-015 4.37326e-015
lhumerus -42.3291 16.1145 80.3606
lradius 24.0554
lwrist -39.6336
lhand -32.7796 3.71296
lfingers 7.12502
lthumb -6.00139 33.608
rfemur -7.70822 -16.9208 21.0141
rtibia 11.2336
rfoot -10.7986 12.1045
rtoes -4.13472e-014
lfemur -9.84601 12.0144 -17.8945
ltibia 9.69439
lfoot -2.16469 -16.7127
ltoes -4.92986e-014
498
root -18.8699 16.6286 5.06324 -155.083 85.7928 -165
lowerback -13.4581 -1.62514 -0.180383
upperback -4.06275 -1.91337 -0.632853
thorax 3.25044 -0.871111 -0.859236
lowerneck -1.71622 1.60403 8.50049
upperneck 27.3659 3.91071 -5.66578
head 9.08622 2.57501 -3.03447
rclavicle -1.15792e-014 -1.03368e-014
rhumerus -42.662 -22.0123 -79.3849
rradius 18.4859
rwrist 29.0543
rhand -36.0456 3.25895
rfingers 7.12502
rthumb -9.15376 -26.5224
lclavicle -1.15792e-014 -1.03368e-014
lhumerus -42.3241 16.1093 80.3686
lradius 24.0305
lwrist -39.6966
lhand -32.7973 3.7361
lfingers 7.12502
lthumb -6.01855 33.6306
rfemur -7.72201 -16.9152 21.0008
rtibia 11.2552
rfoot -10.7951 12.0797
rtoes 2.3059e-014
lfemur -9.84651 11.9972 -17.9066
ltibia 9.67314
lfoot -2.11849 -16.7212
ltoes -1.11319e-014
499
root -18.8699 16.6288 5.06367 -154.686 85.7868 -164.588
lowerback -13.4361 -1.62871 -0.17334
upperback -4.06988 -1.92023 -0.609923
thorax 3.23154 -0.87456 -0.839612
lowerneck -1.68066 1.60093 8.4886
upperneck 27.3717 3.91848 -5.68656
head 9.08216 2.57709 -3.03937
rclavicle -1.5207e-014 -7.95139e-015
rhumerus -42.6551 -21.8851 -79.4515
rradius 18.5203
rwrist 28.8651
rhand -35.9164 2.95631
rfingers 7.12502
rthumb -9.02913 -26.8305
lclavicle -1.5207e-014 -7.95139e-015
lhumerus -42.3709 16.1974 80.3258
lradius 24.0336
lwrist -39.8009
lhand -32.8062 3.72905
lfingers 7.12502
lthumb -6.02707 33.6233
rfemur -7.70277 -16.9016 21.0302
rtibia 11.2591
rfoot -10.814 12.0752
rtoes -7.23576e-014
lfemur -9.83122 12.0051 -17.8679
ltibia 9.67978
lfoot -2.12492 -16.7202
ltoes -5.88403e-014
500
root -18.8701 16.629 5.06371 -155.045 85.7757 -164.95
lowerback -13.4398 -1.6384 -0.201549
upperback -4.06251 -1.92933 -0.613488
thorax 3.24201 -0.879144 -0.82914
lowerneck -1.68739 1.60612 8.49029
upperneck 27.3685 3.92506 -5.68896
head 9.08291 2.57973 -3.03986
rclavicle -4.82053e-015 -7.95139e-016
rhumerus -42.6403 -21.9028 -79.4354
rradius 18.5147
rwrist 28.8767
rhand -36.0254 3.13945
rfingers 7.12502
rthumb -9.13426 -26.6427
lclavicle -4.82053e-015 -7.95139e-016
lhumerus -42.4249 16.2416 80.3004
lradius 24.0478
lwrist -39.9373
lhand -32.8899 3.71207
lfingers 7.12502
lthumb -6.10791 33.604
rfemur -7.70424 -16.9077 21.0113
rtibia 11.2461
rfoot -10.7844 12.0613
rtoes 3.81667e-014
lfemur -9.83985 11.9844 -17.8851
ltibia 9.68439
lfoot -2.13383 -16.7064
ltoes 5.24792e-014
501
root -18.8685 16.6275 5.06277 -154.534 85.7946 -164.405
lowerback -13.4129 -1.62383 -0.154758
upperback -4.06297 -1.91696 -0.611896
thorax 3.22558 -0.873247 -0.851078
lowerneck -1.68678 1.60547 8.50794
upperneck 27.3985 3.93018 -5.70478
head 9.09446 2.58369 -3.04829
rclavicle 8.10048e-015 2.38542e-015
rhumerus -42.6752 -21.8805 -79.4301
rradius 18.5327
rwrist 28.8571
rhand -35.9205 2.99633
rfingers 7.12502
rthumb -9.03307 -26.7903
lclavicle 8.10048e-015 2.38542e-015
lhumerus -42.4303 16.1309 80.3768
lradius 24.0991
lwrist -39.5807
lhand -32.7358 3.79494
lfingers 7.12502
lthumb -5.95914 33.6911
rfemur -7.66448 -16.9187 21.029
rtibia 11.257
rfoot -10.8179 12.0957
rtoes 4.69132e-014
lfemur -9.78353 12.0169 -17.8522
ltibia 9.66805
lfoot -2.15011 -16.7079
ltoes 2.06736e-014
